<svg preserveAspectRatio="none" width="100%" height="100%" overflow="visible" style="display: block;" viewBox="0 0 18 18" fill="none" xmlns="http://www.w3.org/2000/svg">
<g id="Container">
<path id="Icon" d="M2 18C1.45 18 0.979167 17.8042 0.5875 17.4125C0.195833 17.0208 0 16.55 0 16V2C0 1.45 0.195833 0.979167 0.5875 0.5875C0.979167 0.195833 1.45 0 2 0H16C16.55 0 17.0208 0.195833 17.4125 0.5875C17.8042 0.979167 18 1.45 18 2V16C18 16.55 17.8042 17.0208 17.4125 17.4125C17.0208 17.8042 16.55 18 16 18H2V18M9 13C9.63333 13 10.2083 12.8167 10.725 12.45C11.2417 12.0833 11.6 11.6 11.8 11H16V2V2V2H2V2V2V11H6.2C6.4 11.6 6.75833 12.0833 7.275 12.45C7.79167 12.8167 8.36667 13 9 13V13M8 11V6.85L6.4 8.45L5 7L9 3L13 7L11.6 8.45L10 6.85V11H8V11" fill="var(--fill-0, #0E0F0F)"/>
</g>
</svg>
