<svg preserveAspectRatio="none" width="100%" height="100%" overflow="visible" style="display: block;" viewBox="0 0 20 11" fill="none" xmlns="http://www.w3.org/2000/svg">
<g id="Container">
<path id="Icon" d="M0 11V9C0.633333 9 1.10417 8.83333 1.4125 8.5C1.72083 8.16667 2.36667 8 3.35 8C4.33333 8 4.97917 8.16667 5.2875 8.5C5.59583 8.83333 6.05 9 6.65 9C7.28333 9 7.75417 8.83333 8.0625 8.5C8.37083 8.16667 9.01667 8 10 8C10.95 8 11.5958 8.16667 11.9375 8.5C12.2792 8.83333 12.75 9 13.35 9C13.9833 9 14.4458 8.83333 14.7375 8.5C15.0292 8.16667 15.6667 8 16.65 8C17.6333 8 18.2792 8.16667 18.5875 8.5C18.8958 8.83333 19.3667 9 20 9V11C19.05 11 18.4042 10.8333 18.0625 10.5C17.7208 10.1667 17.25 10 16.65 10C16.05 10 15.5958 10.1667 15.2875 10.5C14.9792 10.8333 14.3333 11 13.35 11C12.4 11 11.7542 10.8333 11.4125 10.5C11.0708 10.1667 10.6 10 10 10C9.36667 10 8.89583 10.1667 8.5875 10.5C8.27917 10.8333 7.63333 11 6.65 11C5.66667 11 5.02917 10.8333 4.7375 10.5C4.44583 10.1667 3.98333 10 3.35 10C2.71667 10 2.24583 10.1667 1.9375 10.5C1.62917 10.8333 0.983333 11 0 11V11M0 7V5C0.633333 5 1.10417 4.83333 1.4125 4.5C1.72083 4.16667 2.36667 4 3.35 4C4.3 4 4.9375 4.16667 5.2625 4.5C5.5875 4.83333 6.05 5 6.65 5C7.28333 5 7.75417 4.83333 8.0625 4.5C8.37083 4.16667 9.01667 4 10 4C10.95 4 11.5917 4.16667 11.925 4.5C12.2583 4.83333 12.7167 5 13.3 5C13.9333 5 14.4042 4.83333 14.7125 4.5C15.0208 4.16667 15.6667 4 16.65 4C17.6 4 18.2458 4.16667 18.5875 4.5C18.9292 4.83333 19.4 5 20 5V7C19.0167 7 18.3625 6.83333 18.0375 6.5C17.7125 6.16667 17.25 6 16.65 6C16.05 6 15.5958 6.16667 15.2875 6.5C14.9792 6.83333 14.3333 7 13.35 7C12.4 7 11.7542 6.83333 11.4125 6.5C11.0708 6.16667 10.6 6 10 6C9.36667 6 8.90417 6.16667 8.6125 6.5C8.32083 6.83333 7.68333 7 6.7 7C5.71667 7 5.0625 6.83333 4.7375 6.5C4.4125 6.16667 3.95 6 3.35 6C2.75 6 2.27917 6.16667 1.9375 6.5C1.59583 6.83333 0.95 7 0 7V7M0 3V1C0.633333 1 1.10417 0.833333 1.4125 0.5C1.72083 0.166667 2.36667 0 3.35 0C4.3 0 4.9375 0.166667 5.2625 0.5C5.5875 0.833333 6.05 1 6.65 1C7.28333 1 7.75417 0.833333 8.0625 0.5C8.37083 0.166667 9.01667 0 10 0C10.95 0 11.5917 0.166667 11.925 0.5C12.2583 0.833333 12.7167 1 13.3 1C13.9333 1 14.4042 0.833333 14.7125 0.5C15.0208 0.166667 15.6667 0 16.65 0C17.6 0 18.2458 0.166667 18.5875 0.5C18.9292 0.833333 19.4 1 20 1V3C19.0167 3 18.3625 2.83333 18.0375 2.5C17.7125 2.16667 17.25 2 16.65 2C16.05 2 15.5958 2.16667 15.2875 2.5C14.9792 2.83333 14.3333 3 13.35 3C12.4 3 11.7542 2.83333 11.4125 2.5C11.0708 2.16667 10.6 2 10 2C9.36667 2 8.90417 2.16667 8.6125 2.5C8.32083 2.83333 7.68333 3 6.7 3C5.71667 3 5.0625 2.83333 4.7375 2.5C4.4125 2.16667 3.95 2 3.35 2C2.75 2 2.27917 2.16667 1.9375 2.5C1.59583 2.83333 0.95 3 0 3V3" fill="var(--fill-0, #444748)"/>
</g>
</svg>
