<svg preserveAspectRatio="none" width="100%" height="100%" overflow="visible" style="display: block;" viewBox="0 0 16 11.3333" fill="none" xmlns="http://www.w3.org/2000/svg">
<path id="Vector" d="M6.81667 10.85C6.49444 10.5278 6.33333 10.1333 6.33333 9.66667C6.33333 9.2 6.49444 8.80556 6.81667 8.48333C7.13889 8.16111 7.53333 8 8 8C8.46667 8 8.86111 8.16111 9.18333 8.48333C9.50556 8.80556 9.66667 9.2 9.66667 9.66667C9.66667 10.1333 9.50556 10.5278 9.18333 10.85C8.86111 11.1722 8.46667 11.3333 8 11.3333C7.53333 11.3333 7.13889 11.1722 6.81667 10.85ZM4.23333 7.56667L2.83333 6.13333C3.48889 5.47778 4.25844 4.95844 5.142 4.57533C6.02556 4.19222 6.97822 4.00044 8 4C9.02178 3.99956 9.97467 4.194 10.8587 4.58333C11.7427 4.97267 12.512 5.50045 13.1667 6.16667L11.7667 7.56667C11.2778 7.07778 10.7111 6.69445 10.0667 6.41667C9.42222 6.13889 8.73333 6 8 6C7.26667 6 6.57778 6.13889 5.93333 6.41667C5.28889 6.69445 4.72222 7.07778 4.23333 7.56667ZM1.4 4.73333L0 3.33333C1.02222 2.28889 2.21667 1.47222 3.58333 0.883333C4.95 0.294444 6.42222 0 8 0C9.57778 0 11.05 0.294444 12.4167 0.883333C13.7833 1.47222 14.9778 2.28889 16 3.33333L14.6 4.73333C13.7444 3.87778 12.7529 3.20845 11.6253 2.72533C10.4978 2.24222 9.28933 2.00044 8 2C6.71067 1.99956 5.50244 2.24133 4.37533 2.72533C3.24822 3.20933 2.25644 3.87867 1.4 4.73333Z" fill="var(--fill-0, #10B981)"/>
</svg>
